{"title":"Wolfmother - live 2006 - Cologne/Germany","uid":3699038,"size":1501478369,"categoryP":"video","categoryS":"music_videos","magnet":"?xt=urn:btih:afa3c7ee662e3d7d627b021f7b160694a8b15f9a&amp;dn=Wolfmother+-+live+2006+-+Cologne%2FGermany&amp;tr=udp%3A%2F%2Ftracker.openbittorrent.com%3A80&amp;tr=udp%3A%2F%2Fopen.demonii.com%3A1337&amp;tr=udp%3A%2F%2Ftracker.coppersurfer.tk%3A6969&amp;tr=udp%3A%2F%2Fexodus.desync.com%3A6969","seeders":2,"leechers":2,"uploader":"vargmama","files":1,"time":1180321361,"description":"WOLFMOTHER \n18. November 2006 \nCologne, Live Music Hall\n\nAndrew Stockdale - vocals, guitar\nChris Ross - bass, keyboards\nMyles Heskett - drums\n\nPlaylist\n\n00. Intro (Warm-Up)\n01. Dimension\n02. Pyramid\n03. Apple Tree\n04. White Unicorn\n05. Love Train\n06. Woman\n07. Mind&amp;#039;s Eye\n---------------------------\n08. Vagabond\n09. Colossal\n10. Joker &amp; The Thief\n\n\nDuration: 01:10:33.6, start: 1.000000, bitrate: 2837 kb/s\nStream #0.0[0x1e0]: Video: mpeg2video, yuv420p, 704x576, 7000 kb/s, 25.00 fps(r)\nStream #0.1[0x1c0]: Audio: mp2, 48000 Hz, stereo, 192 kb/s\n\n","torrent":{"xt":"urn:btih:afa3c7ee662e3d7d627b021f7b160694a8b15f9a","amp;dn":"Wolfmother+-+live+2006+-+Cologne%2FGermany","amp;tr":["udp%3A%2F%2Ftracker.openbittorrent.com%3A80","udp%3A%2F%2Fopen.demonii.com%3A1337","udp%3A%2F%2Ftracker.coppersurfer.tk%3A6969","udp%3A%2F%2Fexodus.desync.com%3A6969"],"infoHash":"afa3c7ee662e3d7d627b021f7b160694a8b15f9a","infoHashBuffer":{"type":"Buffer","data":[175,163,199,238,102,46,61,125,98,123,2,31,123,22,6,148,168,177,95,154]},"announce":[],"urlList":[]}}